<?xml version="1.0" encoding="UTF-8"?><svg id="Layer_2" xmlns="http://www.w3.org/2000/svg" viewBox="0 0 1782.59 3025.98"><defs><style>.cls-1{fill:#231f20;}.cls-1,.cls-2{fill-rule:evenodd;}.cls-2{fill:#fff;}</style></defs><g id="Layer_1-2"><g><path class="cls-1" d="M1360.92,225.83c4.39,34.34,16.06,68.62,13.18,103.18-1.73,20.16-16.27,32.9-21.6,52.49-3.67,13.39,1.51,31.68-4.75,44.06-23.11,45.65-50.18,78.7-84.67,116.42-26.78,29.38-72,40.82-108.07,16.49-44.35-29.95-78.48-109.15-89.14-173.74-2.95,7.06-14.9,15.05-20.74,8.35-27.43-31.18-33.41-62.5-27.94-96.26,2.66-16.42,18.22-27.5,25.49-20.74,15.05,14.04,16.06,29.45,24.12,48.53-4.61-22.68-9-47.74-17.28-57.82-9.5-11.66-26.78-8.21-38.02,12.82-5.26-6.34-6.34-18.65-3.1-36.86,1.15-21.02,2.38-42.05,3.53-63-2.95-9.5-.79-17.93,5.54-27.86,21.24-33.41,23.98-71.06,51.48-99.43,36.29-37.44,76.68-56.16,115.49-51.84,28.66,3.24,60.48,17.06,77.69,40.82,6.91,9.58,11.52,18.36,15.91,29.3,14.83,3.46,27.22,12.6,33.19,16.78,17.78,30.74,36.86,68.11,49.46,106.63,7.13,19.22,2.09,23.98,.22,31.68h0Zm-325.73-5.69c20.45-26.5,81-66.74,127.37-73.15,62.14-8.64,140.9,2.66,172.58,31.61-8.78-27.43-18.36-55.15-34.34-84.96-43.42-17.14-96.84-23.47-146.38-15.34-41.4,6.84-86.26,38.66-113.4,64.58-2.88,11.45-3.02,16.27-4.61,28.08,16.7-19.66,44.78-40.9,81.94-52.49-34.42,18.14-60.55,37.51-83.02,61.27-1.3,13.18-1.51,26.57-.14,40.39h0Zm73.51,7.42c16.49-23.62,31.82-44.42,57.24-44.35,39.46,.22,71.21,28.15,106.85,45.14,7.49-11.16,14.9-19.73,29.16-27.5-12.6-.72-22.68,9.72-31.1,16.7-37.01-15.7-71.86-45.58-111.89-42.7-25.7,1.87-32.69,18.65-50.26,52.7Z"/><path class="cls-1" d="M1323.98,488.7c4.97,5.98,12.38,16.78,11.74,25.99-33.84,52.78-71.93,107.64-114.26,155.74-43.78,49.75-99.94,85.9-142.34,31.75-21.96-27.94-24.19-78.98-19.44-174.74,6.91,41.98,15.98,68.76,26.06,88.63-11.74-57.1-9.58-108.29-11.88-165.46,16.7,49.75,33.26,79.99,63.86,112.32,23.26,24.55,69.77,29.09,93.02,16.13,44.42-24.84,69.98-58.03,93.24-90.36Z"/><path class="cls-1" d="M1356.31,499.86c51.84,23.4,87.12,42.84,126.58,71.93,5.04,3.67,12.82,12.6,10.44,20.02-28.01-14.18-62.93-32.33-94.75,5.76-62.64,74.95-79.63,170.42-71.06,259.34,9.86,103.1,70.85,151.49,113.04,165.24,11.59,3.74,25.49-1.3,41.18-10.22,5.04,28.44,4.46,61.85,0,93.46-27.5-2.66-68.18-7.7-94.1-18.58-49.75-20.95-73.08-48.96-88.99-103.1-4.18-13.46-17.42-19.22-30.1-22.39-21.82-23.69-55.8-33.19-73.8-60.19-6.55-9.79-18.79,9.5-19.58,20.3-1.15,16.63,7.56,21.31,10.08,29.66-18.58,1.87-45,3.6-56.95,8.35-25.49,9.94-30.74,24.26-39.74,34.56-7.63,10.22,12.17,24.34,31.39,17.86-10.22,10.22-3.82,32.69,13.46,31.39-16.99,13.1-9.29,32.76,2.59,37.8-9.65,8.35-3.24,26.93,13.39,27.5,15.41,2.59,27.58-9,53.21-.65,.72,7.63,12.74,17.42,19.22,32.83,9.29,22.03,22.39,35.93,41.04,37.44,43.92,43.99,119.88,87.12,185.83,122.11-21.24,21.96-32.26,56.88-33.05,76.54,10.08,14.33,16.7,27.14,13.82,42.98-2.95,15.91-13.32,30.74-20.02,46.15-24.84-37.8-58.54-71.14-98.35-101.45,44.35,46.01,80.57,88.78,87.62,119.88-1.51,8.71-3.1,17.42-4.61,26.14-24.48,25.27-69.98,32.11-119.88,22.97-88.06-16.13-178.06-42.91-261.22-107.5-58.75-45.65-113.98-98.93-141.41-167.54-7.2-18.29-1.94-44.42,13.9-58.39,10.37-9.14,36.14,.86,49.97,.86-8.21,10.22-12.96,17.06-24.55,23.9-1.87,39.02,19.94,70.92,40.61,90.5-13.68-28.15-29.38-58.9-25.06-89.64,18.22-16.06,36.22-40.1,37.37-73.22,24.98,53.57,55.15,86.62,86.04,116.78-30.53-42.91-59.83-88.34-84.53-142.92-7.92-33.19-11.52-63.36-10.73-90.65,51.26,80.78,107.57,151.56,170.57,208.94-55.01-67.68-112.32-144.58-155.66-215.21,18.07,11.09,43.85,8.06,60.41,.07-28.87-.07-60.19-16.2-86.62-28.37-29.09-24.48-57.89-51.84-77.76-99.14-22.39-53.14,18.72-138.74,27.86-188.93,21.6-29.81,39.02-55.66,66.02-108.79,28.87-56.95,54.29-123.84,92.81-176.83,8.78,1.22,14.83,6.48,16.7,9.36-6.55,31.82-18.22,64.94-19.73,97.42-2.59,56.3-6.62,120.96,13.68,171,20.3,50.04,74.59,47.59,107.21,25.99,67.25-44.64,89.5-89.5,126.07-171.72,12.74-16.13,25.56-32.26,38.38-48.31,5.33-6.98,7.7-18.29,2.74-25.27,8.86,0,20.3,9.07,19.01,13.97Z"/><path class="cls-1" d="M1368.48,193.07c10.58,15.91,30.1,29.09,48.1,34.92,19.87,6.48,44.35,2.09,63.65,10.22,19.08,8.06,35.71,24.7,50.11,39.6,2.59,7.78-3.89,15.77-15.26,7.2-14.04-10.58-32.11-20.45-48.96-25.34-23.76-6.98-54.43,2.52-79.13-10.08-2.09,12.53,3.46,27.79,21.89,37.94,38.38,12.02,85.68,20.45,135.43,27.94,32.33,4.9,68.9,28.58,83.3,64.44,8.57,21.24-9.72,24.26-13.54,16.56-16.7-34.2-44.28-58.32-82.22-57.24-46.3,1.3-87.12-6.26-135.58-15.34,15.48,20.52,47.66,32.33,74.02,43.27,34.56,14.33,76.68,11.02,107.5,32.11,26.78,18.29,38.23,50.47,52.49,79.56,6.55,13.54-13.61,27.72-18.79,14.11-11.59-30.38-19.87-55.66-56.02-72.72-14.76-6.98-31.68-8.42-47.45-12.6,20.02,19.58,45.79,34.56,60.05,58.68,13.68,23.18,23.4,52.2,20.88,78.19-1.73,18.14-6.48,37.58-18.14,51.62-8.5,10.3-17.57,3.17-16.7-5.54,2.81-30.6,17.21-65.45-9.79-106.13-23.69-35.64-63.58-60.05-107.5-87.98-26.71-7.06-46.66-15.77-64.22-25.13,1.73-13.97,13.54-30.96,13.9-46.15,.65-31.61-5.98-58.97-11.16-90.14,1.44-12.53-2.3-27.65-6.84-41.98Z"/><path class="cls-1" d="M1502.25,610.38c-23.11-12.74-49.1-26.21-66.6-12.82-53.71,41.04-85.03,119.59-79.42,207.5,7.49,117.14,68.33,142.7,94.75,140.83-24.26-43.63-28.58-86.98-25.56-110.09,14.04,51.84,29.74,98.42,56.3,117.79,14.11,10.22,25.49,21.82,38.45,53.78,18.94,46.8,40.54,82.51,62.28,108.94,70.2,20.52,118.08,34.49,145.22,55.01-49.97-22.39-101.59-33.7-153.72-40.97-60.62-.36-162.72-13.32-219.46-39.46-34.42-15.77-38.66-29.88-50.76-51.48-6.26-11.23-9.43-23.9-14.11-35.86-5.26,26.28,3.74,51.55-7.27,76.1-5.62,12.67-13.18,23.11-17.78,41.98-2.74,11.38-19.94,11.3-30.02,10.01,3.31,15.91,9.29,25.06,18.65,31.9,10.3,9,27.36,7.42,40.03,2.66,.14,5.83-14.18,10.58-22.1,9.94,19.87,17.06,88.63,57.6,120.96,71.5,76.97,33.19,156.1,68.9,241.42,76.39,49.1,4.25,112.75-7.13,142.85-46.22,16.85-21.96-5.11-88.06-11.45-144.72-12.96-115.13-85.03-209.95-87.05-249.19-2.81-54.79-38.52-127.08-79.06-174.02-23.4-27.14-50.26-30.46-84.82-20.59,8.78-9.14,27.36-14.26,49.1-12.6-16.2-19.87-40.82-45.94-60.84-66.31Z"/><path class="cls-1" d="M1280.71,997.16c1.3-8.64-3.02-17.86-12.53-20.52-32.9-7.99-55.01-10.94-86.4-14.33-9.29-.72-51.19,5.54-57.74,10.3-5.47,3.89-20.52,14.26-23.98,20.02-5.76,9.72,2.74,12.31,9.07,11.09,11.74-2.23,15.7-8.64,27.07-12.38,14.76-1.73,29.59-.43,44.35-2.16,23.47,3.31,39.17,7.85,54.65,12.53-24.26-.94-41.11-3.17-65.38-3.38-7.63-.07-30.6,10.73-42.19,15.91-8.14,7.78-4.32,18,1.66,20.3,11.38-1.51,22.75-.5,33.62-1.58-9.43,5.69-18.94,14.4-28.44,20.09-5.62,5.47-1.01,24.05,9.36,20.95,10.66-.58,15.84-4.61,26.42-5.11-8.35,4.54-20.16,11.02-25.49,17.57-7.7,8.06,.43,15.34,5.11,14.33,9.58,0,18-5.9,27.94-6.98,11.3-1.15,24.34,.14,34.99,2.52,17.35,3.96,27,6.62,27.65,14.26-6.34-2.81-15.55-8.93-27.65-6.26,2.23,4.32,17.93,34.27,26.28,38.66,6.98,3.6,15.84-11.74,26.28-14.4,5.47-14.4,.72-29.95,6.26-44.35,2.66-11.81,6.77-21.02,7.92-33.05,1.51-15.26-1.15-38.3,1.15-54Z"/><path class="cls-1" d="M1255.08,967.28c-6.98-11.23-14.76-20.38-28.8-25.7-11.3-4.25-22.75-14.9-31.75-27-7.49-4.32-11.88,11.3-9.22,18,2.52,6.55,8.06,13.46,13.39,16.06,2.38,3.02,4.75,5.98,7.06,9,20.66,2.59,37.08,5.83,49.32,9.65Z"/><path class="cls-1" d="M572.45,364.5c6.12,0,12.24,.29,18.29,.72-.07,6.26,.58,12.53,2.52,18.07,4.75,13.54,21.17,20.59,29.81,10.15,4.75-5.69,7.2-13.75,8.35-21.67,108.86,27,189.58,125.28,189.58,242.42,0,137.95-111.89,249.77-249.77,249.77s-249.77-111.82-249.77-249.77c0-75.24,33.34-142.78,86.04-188.57,8.28,6.41,17.14,14.11,26.5,15.41,14.9,2.02,27.86-10.58,22.75-18.07-5.33-7.85-10.08-15.41-15.91-21.82,7.7-4.68,15.62-9,23.76-12.82,4.9,7.06,9.72,14.26,16.7,18.43,12.67,7.63,30.31,2.45,30.31-11.52,0-7.34-3.1-14.98-7.13-21.74,8.14-2.23,16.34-4.1,24.77-5.54,2.02,7.06,4.9,14.04,9.29,19.51,8.93,11.3,27.36,13.03,32.62,.65,3.02-7.06,2.74-15.62,1.3-23.62Z"/><path class="cls-1" d="M844.03,1216.76c.58,32.4,11.02,59.26,41.69,96.55-20.45-18.86-49.32-21.24-69.77-21.46,32.4,16.2,64.8,36.07,97.2,59.76-55.08-18.22-121.54-17.14-155.52-7.42,59.26-.14,127.22,14.62,165.82,34.7,32.98,26.71,60.98,61.27,99,80.21,85.61,42.7,131.98,40.54,179.21,49.54,11.95,9.65,24.62,21.24,39.02,26.5,51.48,18.72,117.86,23.69,148.68,3.31-19.37,47.59-47.09,106.85-89.86,151.06-12.53,12.96-29.59,22.54-48.46,26.28,11.59,5.33,25.92,.94,46.15-6.62-10.73,25.06-17.57,48.1-22.68,68.83-7.2,29.02-63.29,26.64-103.61,39.53,10.8,1.66,23.9-.43,34.7,1.22-21.24,41.4-61.7,87.05-91.01,138.74-13.9,24.48-20.23,44.71-27.07,72-21.74-.79-44.93-6.05-68.54-20.81-23.9-14.98-40.75-41.69-46.08-90.5,17.57-29.66,31.61-62.86,40.97-100.66,28.94-14.18,59.47-18.65,90.43-20.52-27.22-4.82-55.3-7.85-88.7,1.73,7.92-38.74,9.65-74.59,11.3-111.89,23.62,.72,56.66-10.58,75.74-21.24-23.33,7.34-56.88,9.94-80.21,5.98-1.01-56.95-5.76-114.7-18.43-171.5,1.87,50.54,9,101.23-3.82,151.85-48.96-49.61-141.98-73.08-246.6-75.82-19.37-32.4-20.59-38.66-39.96-70.99-15.41,41.33-17.28,57.46-26.42,100.73-22.54,13.68-34.56,27.29-40.25,40.97-3.96-73.37-21.89-143.64-4.25-214.99,33.05-133.85,120.46-193.9,201.31-215.06Z"/><path class="cls-1" d="M1036.05,425.92c-35.86-3.6-78.12-3.82-125.5,19.66-34.42,16.99-63.14,35.42-94.75,57.24,24.41,57.6,26.35,130.9,5.18,203.83,24.34-9.86,50.18-20.45,74.52-30.31,10.51-15.19,20.23-25.63,25.49-43.49-4.1-19.87-17.42-39.31-30.17-54.94,14.9,7.06,30.31,21.31,36.58,43.42,21.53-20.88,34.34-60.48,49.75-94.18,19.3-42.34,39.24-70.49,58.9-101.23Z"/><path class="cls-1" d="M667.34,1650.2c4.32-8.35,15.05-27.22,28.73-34.78,5.9-29.81,7.42-49.9,17.64-79.63,11.3,24.05,25.92,45.07,37.22,60.55,57.1-5.11,118.08-4.97,187.42,25.99,21.38,9.5,48.46,35.93,56.38,50.54-2.38,43.49,.72,87.62-7.06,130.39-9.36,51.34-30.38,94.82-43.42,160.34-5.33,26.93-26.86,43.63-38.81,68.33,3.74-21.67,12.38-44.86,6.41-66.1-10.58-37.66-50.69-48.31-73.73-40.75,23.69,3.1,57.24,4.9,63.43,46.22,5.18,34.78-1.37,71.35-9.58,105.55-8.71,35.86-32.98,65.88-49.39,98.86-46.01,92.52-107.35,161.64-171.86,235.22-57.74,65.88-100.37,117.5-138.1,171.29-38.38,23.9-96.98-13.46-99.5-77.69,43.42-104.83,54.58-236.95,110.74-335.59,45.94-80.57,144.36-145.22,172.94-217.87,6.41,32.26,15.41,61.2,0,96.62,12.46-13.82,20.16-37.15,18-53.86-10.66-82.3-39.74-154.58-55.44-236.09-6.77-35.42-7.99-71.71-12.02-107.57Z"/><path class="cls-1" d="M902.71,2101.14c25.63-17.71,80.57-35.57,113.11-68.69-21.6-13.25-40.75-40.03-47.59-75.96-6.55,37.94-30.6,66.24-50.62,85.75-2.81,17.06-6.26,41.83-14.9,58.9Z"/><path class="cls-1" d="M454.51,2326.14c15.91-53.5,31.32-112.18,59.33-160.42,39.89-68.9,116.64-122.9,151.92-184.39-40.25,27.36-99.86,33.98-139.97,66.6-65.3,53.06-104.33,118.08-163.01,177.12h-.07c-13.61,39.02-6.84,80.28,15.84,116.28-23.54-20.3-39.46-61.42-25.27-106.56-15.41,16.06-33.77,35.5-51.12,44.86-23.04,48.31-15.41,113.04,1.73,135.29,55.94-25.78,98.06-56.16,150.62-88.78Z"/><path class="cls-1" d="M430.03,2491.74c-15.91,13.1-34.06,69.41-51.05,104.11-10.44-4.46-19.01,4.54-27.29,15.34-18.79,24.48-36.22,50.04-56.38,73.44-13.54,15.77-18.5,32.18-18.72,51.19-.5,32.47,10.15,67.82-3.46,97.27-13.03,28.15-47.59,44.86-70.92,65.38l-.5,.43c2.59,31.68,9.36,58.82,29.02,70.42,23.54,13.9,71.93-18.14,101.02,1.94-27.79-6.77-78.34,17.86-105.84,9.72-17.78-5.26-32.26-42.98-31.39-73.22-11.16,15.62-13.97,31.75-13.54,51.62,13.32,34.85,30.96,52.49,49.54,66.6,60.84-1.15,121.75-2.3,182.59-3.38,10.58-10.15,17.21-35.78,17.06-47.81-2.66-12.53-6.12-25.06-15.34-37.58-17.64-15.34-41.98-25.42-52.92-46.08-11.02-20.74-5.69-46.66-8.57-69.98,7.42,21.1,5.62,45.29,18.94,63.14,11.3,15.19,31.03,21.31,47.02,31.54,2.81-41.47,.72-85.46,12.6-125.42,9.79-32.76,36.43-58.03,54.65-87.05,5.69-4.54,13.75-7.13,17.06-13.61,15.26-30.1,38.09-89.93,36.36-103.54-15.34,9.65-34.27,17.93-55.73,8.5-41.18-18.07-69.26-60.19-54.22-102.96h0Zm-86.9,217.01c7.99-20.38,13.82-37.58,30.46-51.84,13.03-11.23,25.92-16.42,42.05-10.51,22.25,8.14,47.02,20.59,59.33,40.75,5.33,8.71-11.16,24.98-15.55,34.13,.36-9.94,9.07-24.91,2.38-32.33-13.61-15.19-32.9-28.3-52.78-32.98-11.23-2.59-24.41,1.37-33.55,8.42-13.1,10.08-19.51,26.71-29.23,40.1-1.01,1.37-2.09,2.81-3.1,4.25Z"/><path class="cls-1" d="M310.37,2263c-4.82-1.73-9.22-5.76-14.33-5.33-6.48,.58-11.88,5.33-17.78,8.06-2.88-10.3-11.16-18.5-31.25-22.32-6.55-5.33-18.07-16.27-26.5-16.56-32.47-1.15-56.45,13.32-66.24,37.94-18.86,47.38-18.94,100.3-31.18,149.83-6.98,28.15-51.98,26.42-81.5,44.86-28.3,17.71-38.88,64.01-41.54,115.63-1.51,28.08,35.28,74.52,64.15,106.99,16.99,3.67,38.88,6.98,50.83-7.99,21.38-26.86,30.67-61.42,44.57-92.74,6.48-14.62,75.74-57.24,93.46-90.79,10.66-11.02,36-25.7,31.54-36.36-6.19-14.76-19.15-31.03-34.13-36.5-15.91-5.76-27.14,8.06-43.78,11.38,13.68-7.49,25.56-24.12,41.04-22.32,17.42,2.09,27.94,21.38,41.9,32.11,3.24-3.89,6.48-7.7,9.79-11.59-8.06-15.19-15.19-23.98-19.22-40.61-8.06-33.05-7.49-85.75,8.71-107.64,7.13-5.33,14.26-10.66,21.46-16.06h0Zm-276.26,224.71c-4.1,24.84-11.09,48.6-6.19,72.94,4.61,22.68,16.27,41.04,30.74,59.11,10.66,13.39,32.76,17.93,45.29,30.74-14.33-10.3-35.42-7.92-47.59-20.74-16.49-17.42-30.89-39.31-34.56-63-4.1-26.35,2.02-61.92,12.31-79.06Z"/><path class="cls-2" d="M360.55,578.34c28.01-34.49,73.44-62.57,114.98-50.54-38.3,65.52-56.52,149.33-45.36,229.82,4.1-84.53,23.9-162.36,59.69-224.06,44.5,22.25,68.62,74.52,56.59,124.63-9.22,38.45-24.05,71.28-17.5,110.38,5.62,33.55,19.22,63.58,58.25,76.61-29.88-21.17-41.11-45.36-46.08-75.38-5.9-35.71,4.54-67.9,15.34-102.46,17.21-55.01-11.74-115.92-61.56-142.27,8.42-13.61,17.71-26.42,27.79-38.3,90.86,43.2,158.4,131.47,202.82,255.24-20.3-115.78-102.1-220.82-196.42-262.51,14.69-16.2,31.03-30.38,48.96-42.34,17.35,8.64,41.33,16.78,65.52,19.58,31.61,3.6,59.18,1.87,93.74,10.94-24.62-16.27-59.18-13.1-89.35-16.7-27.07-3.17-48.1-9.86-64.8-17.14,16.99-10.8,35.42-19.58,55.22-26.14-23.11,2.95-45.07,10.37-65.38,21.38-7.78-3.89-14.54-7.7-20.45-11.16,1.73,3.82,7.34,8.78,15.7,13.82-19.15,11.02-36.79,25.34-52.7,42.19-25.99-9.72-52.7-14.54-79.27-13.39,25.78,3.89,50.11,10.66,73.01,20.23-10.3,11.74-19.8,24.55-28.44,38.23-44.35-14.11-96.12,18.22-120.31,59.33Z"/><path class="cls-1" d="M387.98,429.23c3.46-9.5,4.61-20.16,10.3-28.51,4.03-5.83,16.2-14.54,22.97-12.24,14.83,5.11,21.74,17.5,30.24,30.67,4.18,6.41-6.34,17.06-18.36,15.41-9.86-1.37-18.94-11.95-27.22-17.42-6.77,3.67-11.59,7.92-17.93,12.1Z"/><path class="cls-1" d="M457.25,384.37c1.44-1.01,6.84-3.53,10.3-4.54,4.68,6.77,9.07,14.04,15.84,18.07,10.73,6.48,25.78,2.09,25.78-9.79s-9.43-24.55-15.98-31.97c-8.71-6.41-24.77,.14-30.96,9.36-2.52,3.82-6.12,12.6-4.97,18.86Z"/><path class="cls-1" d="M530.4,348.88c1.8,10.51,4.32,24.12,11.16,33.26,7.56,10.01,23.18,11.52,27.65,.5,4.39-11.02,.36-26.28-2.88-35.57-6.84-10.94-30.74-10.01-35.93,1.8Z"/><path class="cls-1" d="M599.3,344.34c-1.44,10.58-3.24,24.26,.5,35.06,4.18,11.88,18.58,18.07,26.14,8.93,7.63-9.14,8.42-24.91,8.14-34.78-3.17-12.46-26.21-18.86-34.78-9.22Z"/><path class="cls-1" d="M539.4,874.26c-28.37,11.3-63.07,19.44-81.29,26.28-21.96,8.28-38.45,4.61-50.33-17.93-11.59-22.1-19.73-54.72-22.61-80.28,40.25,40.18,94.18,66.67,154.22,71.93Z"/></g></g></svg>